Coordinates
version=1
nRows=18
nColumns=34
inDegrees=no

Units are S.I. units (second, meters, Newtons, ...)
If the header above contains a line with 'inDegrees', this indicates whether rotational values are in degrees (yes) or radians (no).

endheader
time	pelvis_tilt	pelvis_list	pelvis_rotation	pelvis_tx	pelvis_ty	pelvis_tz	hip_flexion_r	hip_adduction_r	hip_rotation_r	knee_angle_r	ankle_angle_r	subtalar_angle_r	mtp_angle_r	hip_flexion_l	hip_adduction_l	hip_rotation_l	knee_angle_l	ankle_angle_l	subtalar_angle_l	mtp_angle_l	lumbar_extension	lumbar_bending	lumbar_rotation	arm_flex_r	arm_add_r	arm_rot_r	elbow_flex_r	pro_sup_r	arm_flex_l	arm_add_l	arm_rot_l	elbow_flex_l	pro_sup_l
0.96	0.140745	-0.000605216	-0.0176576	1.01783	1.09419	-0.268615	0.332261	-0.0856228	-0.157522	0.756042	0.0740844	-0.130753	-0.00850762	-0.164581	0.0120342	-0.419434	0.101481	0.169427	0.284621	-0.0113984	-0.544045	-0.320895	-0.0278201	-0.117118	-0.116904	-0.151127	0.682434	2.18222	0.155245	-0.236708	-0.436927	0.94718	1.88623
0.97	0.143293	-0.00245095	-0.0187711	1.02862	1.09377	-0.27138	0.328617	-0.0814345	-0.166396	0.700377	0.0837462	-0.101879	-0.00853449	-0.187343	0.0179503	-0.410507	0.0839443	0.17049	0.277744	-0.0113575	-0.543669	-0.305824	-0.0346405	-0.118429	-0.114807	-0.157093	0.670098	2.17783	0.166001	-0.244067	-0.433384	0.959174	1.88771
0.98	0.145668	-0.00381212	-0.020118	1.0395	1.09302	-0.274058	0.32354	-0.0773787	-0.176495	0.642663	0.0922377	-0.0672601	-0.00856135	-0.209803	0.0243258	-0.400292	0.0671826	0.172156	0.268488	-0.0113165	-0.542906	-0.291526	-0.0409737	-0.119855	-0.112994	-0.163167	0.65802	2.17233	0.176766	-0.252047	-0.429043	0.969501	1.88936
0.99	0.147883	-0.0046723	-0.0216767	1.05049	1.09196	-0.276631	0.317121	-0.0733271	-0.187354	0.583255	0.0991894	-0.0279856	-0.00858821	-0.231776	0.0310027	-0.389398	0.0516611	0.174722	0.257635	-0.0112756	-0.541773	-0.278061	-0.0468183	-0.121413	-0.111368	-0.169387	0.646251	2.16556	0.187528	-0.260648	-0.423912	0.978244	1.89101
1	0.14998	-0.00502246	-0.0233885	1.06158	1.0906	-0.279081	0.309423	-0.0691495	-0.198247	0.522566	0.104343	0.0143677	-0.00861506	-0.253051	0.0377708	-0.378642	0.0379399	0.178538	0.246323	-0.0112346	-0.540338	-0.265479	-0.0522143	-0.123095	-0.10981	-0.17579	0.634844	2.15741	0.198296	-0.269888	-0.417999	0.985486	1.89243
1.01	0.152022	-0.00486339	-0.0251659	1.07277	1.08899	-0.281387	0.300485	-0.0647319	-0.208198	0.461105	0.1076	0.0578601	-0.00864191	-0.273406	0.0443849	-0.368994	0.0266275	0.183974	0.235958	-0.0111937	-0.538707	-0.253817	-0.057235	-0.124871	-0.108197	-0.182389	0.623844	2.14778	0.209093	-0.279793	-0.411311	0.991302	1.89343
1.02	0.154088	-0.00421222	-0.0269025	1.08407	1.08716	-0.283527	0.290344	-0.0600008	-0.216081	0.399505	0.109046	0.100357	-0.00866875	-0.292628	0.0505871	-0.361474	0.0183158	0.191368	0.228061	-0.0111528	-0.537008	-0.243101	-0.0619735	-0.126691	-0.106415	-0.18917	0.613278	2.13672	0.219945	-0.290381	-0.403848	0.995754	1.89386
1.03	0.156269	-0.0031247	-0.028482	1.09546	1.08516	-0.285481	0.279069	-0.05495	-0.220781	0.338573	0.108954	0.139738	-0.00869559	-0.310532	0.0561374	-0.357036	0.0135034	0.200959	0.224076	-0.0111119	-0.535363	-0.233342	-0.0665264	-0.128495	-0.104377	-0.196083	0.603157	2.12436	0.230868	-0.301655	-0.395606	0.998895	1.89368
1.04	0.158642	-0.00166375	-0.0298067	1.10696	1.08304	-0.28723	0.266791	-0.0496497	-0.221419	0.279322	0.10776	0.174122	-0.00872242	-0.326987	0.0608223	-0.356429	0.0125204	0.212822	0.225158	-0.0110709	-0.533866	-0.224517	-0.070977	-0.130219	-0.102031	-0.203055	0.59347	2.11104	0.241859	-0.313575	-0.386587	1.00078	1.89294
1.05	0.161223	0.00010816	-0.0308062	1.11855	1.08084	-0.288765	0.253736	-0.0442353	-0.217575	0.222984	0.106001	0.202103	-0.00874925	-0.34194	0.064468	-0.360084	0.0154736	0.226813	0.231985	-0.01103	-0.532574	-0.21656	-0.0753706	-0.131809	-0.0993728	-0.209999	0.584197	2.09721	0.25288	-0.326052	-0.376813	1.00146	1.89181
1.06	0.163987	0.00209388	-0.0314444	1.13026	1.07861	-0.290083	0.240256	-0.0388859	-0.209446	0.170966	0.104223	0.222925	-0.00877607	-0.355421	0.066944	-0.368044	0.0222183	0.242542	0.244647	-0.0109891	-0.531483	-0.209356	-0.0797025	-0.133221	-0.0964459	-0.216827	0.575313	2.08346	0.263858	-0.338937	-0.366341	1.00101	1.89054
1.07	0.16686	0.00414869	-0.0317232	1.14208	1.07638	-0.291194	0.226817	-0.0337719	-0.197885	0.124731	0.102857	0.236556	-0.00880289	-0.367536	0.0681459	-0.379963	0.0323725	0.259394	0.262634	-0.0109483	-0.530524	-0.202738	-0.0839081	-0.134431	-0.0933381	-0.223456	0.566797	2.07036	0.274676	-0.352022	-0.355276	0.999529	1.88939
1.08	0.169743	0.00606756	-0.0316758	1.15402	1.07418	-0.292117	0.213942	-0.0289857	-0.184261	0.0856007	0.102084	0.243609	-0.00882971	-0.378451	0.0679591	-0.395205	0.0453817	0.276596	0.284972	-0.0109074	-0.529576	-0.196471	-0.0878622	-0.135431	-0.0901711	-0.229806	0.558644	2.05843	0.285174	-0.365053	-0.343777	0.997131	1.88866
1.09	0.17252	0.0075799	-0.0313519	1.16611	1.07206	-0.292876	0.202121	-0.0244768	-0.170148	0.0545066	0.101707	0.245099	-0.00885652	-0.388364	0.0662147	-0.413034	0.0606318	0.293335	0.310503	-0.0108665	-0.528483	-0.190254	-0.0913884	-0.136232	-0.0870847	-0.235802	0.55087	2.04802	0.29515	-0.377743	-0.332054	0.993971	1.88861
1.1	0.175081	0.00835738	-0.0307969	1.17835	1.07003	-0.293491	0.191692	-0.0200164	-0.156921	0.0317611	0.10108	0.242086	-0.00888333	-0.397468	0.0626518	-0.432846	0.0775871	0.3089	0.338229	-0.0108257	-0.52708	-0.183719	-0.0942799	-0.136866	-0.0842182	-0.241364	0.543509	2.03922	0.304364	-0.389802	-0.32036	0.990238	1.8895
1.11	0.177334	0.00804048	-0.0300331	1.19076	1.0681	-0.293977	0.182767	-0.0152166	-0.145415	0.0169442	0.0991537	0.235373	-0.00891013	-0.405909	0.056919	-0.454308	0.0958894	0.322774	0.36753	-0.0107848	-0.525212	-0.176469	-0.0963324	-0.137382	-0.0816926	-0.246409	0.536613	2.03189	0.312546	-0.400958	-0.308972	0.986144	1.89155
1.12	0.179212	0.0062915	-0.0290517	1.20337	1.06631	-0.29434	0.175216	-0.0096123	-0.135838	0.00902283	0.0946835	0.225467	-0.00893693	-0.413796	0.0486496	-0.477222	0.115341	0.334608	0.398012	-0.010744	-0.522754	-0.16813	-0.0973819	-0.137845	-0.0795976	-0.25086	0.53023	2.02575	0.319399	-0.410979	-0.298183	0.981928	1.89495
1.13	0.180687	0.00285133	-0.0278183	1.2162	1.06464	-0.294585	0.168727	-0.00276981	-0.12788	0.00662851	0.0865402	0.212697	-0.00896372	-0.421211	0.0375683	-0.50127	0.135832	0.344148	0.429189	-0.0107032	-0.519632	-0.158404	-0.0973354	-0.138319	-0.0779852	-0.254653	0.524396	2.0205	0.324625	-0.419681	-0.288279	0.977839	1.89979
